<svg xmlns="http://www.w3.org/2000/svg" viewBox="0 0 512 512">
  <defs>
    <radialGradient id="maskableGradient" cx="50%" cy="40%" r="70%">
      <stop offset="0%" stop-color="#38bdf8" />
      <stop offset="100%" stop-color="#1d4ed8" />
    </radialGradient>
  </defs>
  <rect width="512" height="512" rx="128" fill="url(#maskableGradient)" />
  <g fill="white" stroke="white" stroke-width="18" stroke-linecap="round" stroke-linejoin="round">
    <path d="M128 320h256c35.3 0 64 28.7 64 64v32c0 17.7-14.3 32-32 32H96c-17.7 0-32-14.3-32-32v-32c0-35.3 28.7-64 64-64z" fill-opacity="0.2" />
    <path d="M160 332l40-136c8.4-28.5 34.3-48 64.1-48h43.8c29.7 0 55.6 19.5 64.1 48l40 136H160z" fill="none" />
    <circle cx="200" cy="400" r="40" fill="white" />
    <circle cx="352" cy="400" r="40" fill="white" />
    <path d="M188 272h136" />
    <path d="M168 224h176" />
    <path d="M212 176h96" />
  </g>
</svg>
